#N canvas 100 62 1039 635 12;
#X obj 106 121 vsl 15 128 0 1 0 0 empty empty empty 0 -9 0 10 -204800
-1 -1 0 1;
#X obj 155 120 vsl 15 128 0 1 0 0 empty empty empty 0 -9 0 10 -204800
-1 -1 3556 1;
#X obj 204 120 vsl 15 128 0 1 0 0 empty empty empty 0 -9 0 10 -203904
-1 -1 9525 1;
#X obj 251 124 vsl 15 128 0 1 0 0 empty empty empty 0 -9 0 10 -204800
-1 -1 8001 1;
#X obj 294 124 vsl 15 128 0 1 0 0 empty empty empty 0 -9 0 10 -204800
-1 -1 6350 1;
#X obj 711 82 pack 0 f 1 f f f f f, f 46;
#X obj 724 -3 t b f;
#X obj 108 272 tof/breakpoints;
#N canvas 866 90 574 484 adsrLogic 0;
#X obj 16 118 +;
#X obj 66 63 t b f;
#X obj 114 94 t b f;
#X obj 16 169 +;
#X obj 162 123 t b f;
#X obj 16 217 +;
#X msg 16 252 duration \$1;
#X obj 16 297 t b a;
#X obj 16 33 inlet;
#X text 15 13 aTime;
#X obj 66 34 inlet;
#X text 66 14 dTime;
#X obj 113 34 inlet;
#X text 112 13 sTime;
#X obj 161 34 inlet;
#X text 162 12 rTime;
#X obj 16 415 outlet;
#X obj 109 415 outlet;
#X text 19 437 bang;
#X text 71 439 duration message;
#X connect 0 0 3 0;
#X connect 1 0 0 0;
#X connect 1 1 0 1;
#X connect 2 0 3 0;
#X connect 2 1 3 1;
#X connect 3 0 5 0;
#X connect 4 0 5 0;
#X connect 4 1 5 1;
#X connect 5 0 6 0;
#X connect 6 0 7 0;
#X connect 7 0 16 0;
#X connect 7 1 17 0;
#X connect 8 0 0 0;
#X connect 10 0 1 0;
#X connect 12 0 2 0;
#X connect 14 0 4 0;
#X restore 710 -58 pd adsrLogic;
#X f 24;
#X obj 115 -41 loadbang;
#X text 21 42 default ADSR;
#X obj 415 524 s dLevel;
#X obj 59 696 s aTime;
#X obj 107 639 s dTime;
#X obj 460 629 s sTime;
#X obj 505 572 s rTime;
#X obj 710 -86 r aTime;
#X obj 765 -85 r dTime;
#X obj 821 -85 r sTime;
#X obj 877 -85 r rTime;
#X obj 756 57 r aTime;
#X obj 938 57 r sTime;
#X obj 847 58 r dTime;
#X obj 723 -25 r dLevel;
#X obj 1030 57 r rTime;
#X obj 213 13 f 0.75;
#X obj 162 42 f 0.28;
#X obj 113 17 i 0;
#X obj 260 48 f 0.63;
#X obj 304 22 f 0.5;
#X text 240 602 makes slider curve more natural;
#X text 108 100 A;
#X text 180 101 D;
#X text 145 249 Time;
#X text 192 249 Level;
#X text 252 102 S;
#X text 295 102 R;
#X obj 505 548 cyclone/scale 0 1 4 2000 3;
#X obj 460 602 cyclone/scale 0 1 4 1000 3;
#X obj 364 653 cyclone/scale 0 1 1 1000 3;
#X obj 59 670 cyclone/scale 0 1 1 500 3;
#X connect 0 0 40 0;
#X connect 1 0 39 0;
#X connect 2 0 11 0;
#X connect 3 0 38 0;
#X connect 4 0 37 0;
#X connect 5 0 7 0;
#X connect 6 0 5 0;
#X connect 6 1 5 4;
#X connect 6 1 5 6;
#X connect 8 0 5 0;
#X connect 8 1 7 0;
#X connect 9 0 25 0;
#X connect 9 0 26 0;
#X connect 9 0 27 0;
#X connect 9 0 28 0;
#X connect 9 0 29 0;
#X connect 16 0 8 0;
#X connect 17 0 8 1;
#X connect 18 0 8 2;
#X connect 19 0 8 3;
#X connect 20 0 5 1;
#X connect 21 0 5 5;
#X connect 22 0 5 3;
#X connect 23 0 6 0;
#X connect 24 0 5 7;
#X connect 25 0 2 0;
#X connect 26 0 1 0;
#X connect 27 0 0 0;
#X connect 28 0 3 0;
#X connect 29 0 4 0;
#X connect 37 0 15 0;
#X connect 38 0 14 0;
#X connect 39 0 13 0;
#X connect 40 0 12 0;
#X coords 0 -1 1 1 220 325 2 100 100;
