#N canvas 211 112 878 586 12;
#X obj 131 64 mtof;
#X obj 29 151 osc~;
#X obj 31 573 *~;
#X obj 133 148 phasor~;
#X obj 133 176 expr~ $v1 > 0.5;
#X msg 201 201 clear;
#X obj 359 151 phasor~;
#X obj 359 178 -~ 0.5;
#X obj 359 205 *~ 2;
#X obj 32 474 +~;
#X obj 32 499 +~;
#X text 28 128 sine;
#X text 145 126 spike;
#X text 359 126 sawtooth;
#X obj 47 178 r sinBlend;
#X obj 29 205 *~;
#X obj 151 331 r spikeBlend;
#X obj 133 360 *~;
#X obj 378 226 r sawBlend;
#X obj 360 253 *~;
#X text 57 488 sum oscs;
#X text 58 572 ADSR;
#X obj 265 52 loadbang;
#X obj 265 77 t b b;
#X obj 131 5 inlet;
#X obj 30 815 outlet~;
#X text 43 6 midi note in;
#X obj 134 226 -~ 0.5;
#X obj 134 253 *~ 2;
#X obj 33 527 *~ 0.5;
#X obj 738 261 pack 0 f 1 f f f f f, f 46;
#X obj 751 176 t b f;
#X obj 715 294 tof/breakpoints;
#N canvas 866 90 574 484 adsrLogic 0;
#X obj 16 118 +;
#X obj 66 63 t b f;
#X obj 114 94 t b f;
#X obj 16 169 +;
#X obj 162 123 t b f;
#X obj 16 217 +;
#X msg 16 252 duration \$1;
#X obj 16 297 t b a;
#X obj 16 33 inlet;
#X text 15 13 aTime;
#X obj 66 34 inlet;
#X text 66 14 dTime;
#X obj 113 34 inlet;
#X text 112 13 sTime;
#X obj 161 34 inlet;
#X text 162 12 rTime;
#X obj 16 415 outlet;
#X obj 109 415 outlet;
#X text 19 437 bang;
#X text 71 439 duration message;
#X connect 0 0 3 0;
#X connect 1 0 0 0;
#X connect 1 1 0 1;
#X connect 2 0 3 0;
#X connect 2 1 3 1;
#X connect 3 0 5 0;
#X connect 4 0 5 0;
#X connect 4 1 5 1;
#X connect 5 0 6 0;
#X connect 6 0 7 0;
#X connect 7 0 16 0;
#X connect 7 1 17 0;
#X connect 8 0 0 0;
#X connect 10 0 1 0;
#X connect 12 0 2 0;
#X connect 14 0 4 0;
#X restore 737 121 pd adsrLogic;
#X f 24;
#X obj 737 93 r aTime;
#X obj 792 94 r dTime;
#X obj 848 94 r sTime;
#X obj 904 94 r rTime;
#X obj 783 236 r aTime;
#X obj 965 236 r sTime;
#X obj 874 237 r dTime;
#X obj 750 154 r dLevel;
#X obj 1057 236 r rTime;
#X obj 713 443 line~;
#X obj 713 266 bng 15 250 50 0 empty empty empty 17 7 0 10 -262144
-1 -1;
#X obj 131 33 t b f;
#X text 638 297 comment;
#X obj 118 608 r filtFrq;
#X obj 326 608 r filtRes;
#X obj 118 634 cyclone/scale 0 1 20 18000 3;
#X text 77 688 filter;
#X obj 29 688 vcf~ 1;
#X obj 325 635 cyclone/scale 0 1 1 10 2;
#X obj 118 658 sig~;
#X obj 26 729 r filtSlct;
#X obj 26 754 + 1;
#X obj 29 780 cyclone/selector~ 2 1;
#X obj 144 200 int 350;
#X obj 134 282 hip~ 350;
#X obj 134 306 hip~ 350;
#X connect 0 0 1 0;
#X connect 0 0 3 0;
#X connect 0 0 6 0;
#X connect 0 0 49 3;
#X connect 1 0 15 0;
#X connect 2 0 51 0;
#X connect 3 0 4 0;
#X connect 4 0 27 0;
#X connect 5 0 58 0;
#X connect 6 0 7 0;
#X connect 7 0 8 0;
#X connect 8 0 19 0;
#X connect 9 0 10 0;
#X connect 10 0 29 0;
#X connect 14 0 15 1;
#X connect 15 0 9 0;
#X connect 16 0 17 1;
#X connect 17 0 9 1;
#X connect 18 0 19 1;
#X connect 19 0 10 1;
#X connect 22 0 23 0;
#X connect 23 0 57 0;
#X connect 23 1 5 0;
#X connect 24 0 45 0;
#X connect 27 0 28 0;
#X connect 28 0 58 0;
#X connect 29 0 2 0;
#X connect 30 0 32 0;
#X connect 31 0 30 0;
#X connect 31 1 30 4;
#X connect 31 1 30 6;
#X connect 32 0 43 0;
#X connect 33 0 30 0;
#X connect 33 1 32 0;
#X connect 34 0 33 0;
#X connect 35 0 33 1;
#X connect 36 0 33 2;
#X connect 37 0 33 3;
#X connect 38 0 30 1;
#X connect 39 0 30 5;
#X connect 40 0 30 3;
#X connect 41 0 31 0;
#X connect 42 0 30 7;
#X connect 43 0 2 1;
#X connect 44 0 32 0;
#X connect 45 0 44 0;
#X connect 45 1 0 0;
#X connect 47 0 49 0;
#X connect 48 0 52 0;
#X connect 49 0 53 0;
#X connect 51 0 56 2;
#X connect 51 1 56 1;
#X connect 52 0 51 2;
#X connect 53 0 51 1;
#X connect 54 0 55 0;
#X connect 55 0 56 0;
#X connect 56 0 25 0;
#X connect 57 0 58 1;
#X connect 58 0 59 0;
#X connect 59 0 17 0;
#X coords 0 586 1 585 525 180 0;
