#N canvas 170 208 450 300 10;
#N canvas 95 95 880 637 oscBlend 0;
#X obj 241 26 vsl 35 200 0 2 0 0 empty empty empty 0 -9 0 10 -4032
-1 -1 3175 1;
#X text 52 361 sine;
#X text 389 359 saw;
#X obj 92 359 expr $f1 <= 1;
#X obj 43 384 expr (1 - $f1) * $f2;
#X obj 373 381 expr ($f1 - 1) * $f2;
#X obj 221 382 *;
#X obj 420 358 expr $f1 > 1;
#X obj 221 355 expr 1 - ($f1 - 1);
#X obj 254 383 *;
#X obj 245 410 t b f;
#X obj 233 434 +;
#X text 256 333 spike;
#X obj 36 456 exp 2;
#X obj 37 480 cyclone/scale 1 2.718 0 1;
#X obj 373 406 exp 2;
#X obj 374 430 cyclone/scale 1 2.718 0 1;
#X obj 233 462 exp 2;
#X obj 234 486 cyclone/scale 1 2.718 0 1;
#X obj 36 593 outlet;
#X obj 233 590 outlet;
#X obj 373 592 outlet;
#X text 86 593 sine;
#X text 280 591 spike;
#X text 425 589 saw;
#X obj 117 11 loadbang;
#X obj 116 35 f 0.5;
#X connect 0 0 3 0;
#X connect 0 0 4 0;
#X connect 0 0 5 0;
#X connect 0 0 6 0;
#X connect 0 0 7 0;
#X connect 0 0 8 0;
#X connect 3 0 4 1;
#X connect 3 0 6 1;
#X connect 4 0 13 0;
#X connect 5 0 15 0;
#X connect 6 0 11 0;
#X connect 7 0 5 1;
#X connect 7 0 9 1;
#X connect 8 0 9 0;
#X connect 9 0 10 0;
#X connect 10 0 11 0;
#X connect 10 1 11 1;
#X connect 11 0 17 0;
#X connect 13 0 14 0;
#X connect 14 0 19 0;
#X connect 15 0 16 0;
#X connect 16 0 21 0;
#X connect 17 0 18 0;
#X connect 18 0 20 0;
#X connect 25 0 26 0;
#X connect 26 0 0 0;
#X coords 0 -1 1 1 38 209 2 239 22;
#X restore 62 33 pd oscBlend;
#X text 31 14 osc blend;
#X obj 41 279 s sinBlend;
#X obj 121 280 s spikeBlend;
#X obj 145 259 s sawBlend;
#X connect 0 0 2 0;
#X connect 0 1 3 0;
#X connect 0 2 4 0;
#X coords 0 -1 1 1 42 214 2 60 31;
